<?xml version="1.0" encoding="UTF-8" standalone="no"?>
<!-- Created with Inkscape (http://www.inkscape.org/) -->

<svg
   xmlns:dc="http://purl.org/dc/elements/1.1/"
   xmlns:cc="http://creativecommons.org/ns#"
   xmlns:rdf="http://www.w3.org/1999/02/22-rdf-syntax-ns#"
   xmlns:svg="http://www.w3.org/2000/svg"
   xmlns="http://www.w3.org/2000/svg"
   xmlns:sodipodi="http://sodipodi.sourceforge.net/DTD/sodipodi-0.dtd"
   xmlns:inkscape="http://www.inkscape.org/namespaces/inkscape"
   width="744.09448819"
   height="1052.3622047"
   id="svg2"
   version="1.1"
   inkscape:version="0.48.2 r9819"
   sodipodi:docname="Nuovo documento 1">
  <defs
     id="defs4" />
  <sodipodi:namedview
     id="base"
     pagecolor="#ffffff"
     bordercolor="#666666"
     borderopacity="1.0"
     inkscape:pageopacity="0.0"
     inkscape:pageshadow="2"
     inkscape:zoom="0.98994949"
     inkscape:cx="339.25818"
     inkscape:cy="499.44764"
     inkscape:document-units="px"
     inkscape:current-layer="layer1"
     showgrid="false"
     inkscape:window-width="1304"
     inkscape:window-height="746"
     inkscape:window-x="-8"
     inkscape:window-y="-8"
     inkscape:window-maximized="1" />
  <metadata
     id="metadata7">
    <rdf:RDF>
      <cc:Work
         rdf:about="">
        <dc:format>image/svg+xml</dc:format>
        <dc:type
           rdf:resource="http://purl.org/dc/dcmitype/StillImage" />
        <dc:title></dc:title>
      </cc:Work>
    </rdf:RDF>
  </metadata>
  <g
     inkscape:label="Livello 1"
     inkscape:groupmode="layer"
     id="layer1">
    <path
       style="fill:none;stroke:#000000;stroke-width:1px;stroke-linecap:butt;stroke-linejoin:miter;stroke-opacity:1"
       d="m 561.07661,468.74655 c -33.50782,-27.25477 -26.07632,34.44058 -27.40848,53.28756 -1.01601,11.74759 -0.049,42.89039 0.26352,54.55122 m 4.7818,126.25336 c -0.12701,2.40707 -0.2651,4.81308 -0.41456,7.21786 -23.54229,19.15966 22.76009,69.84984 -19.54578,65.89669 -66.76177,4.16655 -133.63779,7.93707 -200.44475,9.75696 -48.93679,0.33692 -98.00919,-0.51037 -146.84707,-0.79436 -12.17751,-19.60317 13.15604,-48.02019 15.4271,-70.86031 11.94829,-35.94219 9.30325,-74.53692 19.82254,-110.87844 9.85471,-28.19388 12.94271,-58.7181 6.27002,-88.16807 -0.67276,-18.98707 1.67554,-77.25815 -29.01726,-54.3548 -28.38976,19.36239 -26.02998,56.34112 -46.29647,81.1553 -9.03104,14.57207 -19.27892,29.00343 -33.62151,38.81142"
       id="path2998"
       inkscape:connector-curvature="0"
       sodipodi:nodetypes="cccccccccccccc" />
    <path
       style="fill:none;stroke:#000000;stroke-width:1px;stroke-linecap:butt;stroke-linejoin:miter;stroke-opacity:1"
       d="m 498.0052,356.36708 c 23.64854,7.95703 48.80662,7.24822 72.98615,14.67409 27.62829,9.40214 43.59163,37.02135 54.92388,62.40415 15.64114,36.4967 13.47124,77.64267 2.45513,115.17887 -7.43434,26.7603 -14.54772,53.39347 -20.39183,80.28594 -6.6905,27.7455 -13.61211,58.4948 -35.45401,78.13905 -24.87207,2.2811 -51.17012,-9.88226 -73.50916,-19.35207"
       id="path3002"
       inkscape:connector-curvature="0" />
    <path
       style="fill:none;stroke:#000000;stroke-width:1px;stroke-linecap:butt;stroke-linejoin:miter;stroke-opacity:1"
       d="m 505.07627,682.64635 c 12.14776,-20.90518 19.52603,-43.48726 19.36438,-68.26623 2.36539,-26.15787 16.06374,-49.70406 19.12923,-75.83228 2.64389,-22.647 6.78274,-45.93077 17.10463,-66.84986 7.10723,-26.29197 20.35043,-50.34108 29.25458,-75.93495 4.50225,-1.43446 2.41519,-7.18605 5.05076,-10.10153"
       id="path3004"
       inkscape:connector-curvature="0" />
    <path
       style="fill:none;stroke:#000000;stroke-width:1px;stroke-linecap:butt;stroke-linejoin:miter;stroke-opacity:1"
       d="m 502.04582,356.36708 c -16.83588,0 -33.67175,0 -50.50763,0 -6.0106,-5.44523 -12.63557,-1.16675 -19.90762,-2.53939"
       id="path3006"
       inkscape:connector-curvature="0"
       sodipodi:nodetypes="ccc" />
    <path
       style="fill:none;stroke:#000000;stroke-width:1px;stroke-linecap:butt;stroke-linejoin:miter;stroke-opacity:1"
       d="m 309.10668,355.35693 c 5.30154,18.7549 34.74927,58.26579 53.24963,30.87423 34.20165,-6.75692 -17.49787,-27.09285 -26.75592,-36.06421 -11.47371,-6.08574 -21.11653,-22.27989 -23.4485,1.27611 l -3.04521,3.91387 0,0 z"
       id="path3010"
       inkscape:connector-curvature="0" />
    <path
       style="fill:none;stroke:#000000;stroke-width:1px;stroke-linecap:butt;stroke-linejoin:miter;stroke-opacity:1"
       d="m 317.48376,339.43959 c 19.86633,0 40.44696,-4.28571 60.31329,-4.28571 12.30511,-5.03348 56.94222,-16.05512 26.66266,4.19676 -8.5154,14.19723 -27.26203,24.15936 -33.90191,34.88668 19.0305,29.96295 45.3455,-0.3971 58.68404,-18.36656 12.61579,-8.22233 -10.97661,-14.94412 -14.72216,-27.24698"
       id="path3012"
       inkscape:connector-curvature="0"
       sodipodi:nodetypes="cccccc" />
    <path
       style="fill:none;stroke:#000000;stroke-width:1px;stroke-linecap:butt;stroke-linejoin:miter;stroke-opacity:1"
       d="m 361.63461,389.70211 c 11.48795,21.35932 9.82152,48.24406 3.56945,70.68277 14.73394,13.65961 31.33204,-8.31708 22.71515,-25.63809 -0.89325,-15.66927 -1.37093,-31.37048 -1.03079,-47.06498"
       id="path3014"
       inkscape:connector-curvature="0" />
    <path
       style="fill:none;stroke:#000000;stroke-width:1px;stroke-linecap:butt;stroke-linejoin:miter;stroke-opacity:1"
       d="m 376.7869,399.80364 c -10.13223,18.15613 20.48762,2.01748 0,0 z"
       id="path3016"
       inkscape:connector-curvature="0" />
    <path
       style="fill:none;stroke:#000000;stroke-width:1px;stroke-linecap:butt;stroke-linejoin:miter;stroke-opacity:1"
       d="m 378.8072,420.00669 c -12.83859,12.59764 11.69537,11.66176 0,0 z"
       id="path3018"
       inkscape:connector-curvature="0" />
    <path
       style="fill:none;stroke:#000000;stroke-width:1px;stroke-linecap:butt;stroke-linejoin:miter;stroke-opacity:1"
       d="m 375.77675,446.27066 c -13.26453,20.06409 27.16909,0.12586 0,0 z"
       id="path3020"
       inkscape:connector-curvature="0" />
    <path
       style="fill:none;stroke:#000000;stroke-width:1px;stroke-linecap:butt;stroke-linejoin:miter;stroke-opacity:1"
       d="m 340.42141,353.33662 c 16.79474,-5.09366 35.5737,-0.15858 52.67849,-0.74229"
       id="path3026"
       inkscape:connector-curvature="0"
       sodipodi:nodetypes="cc" />
    <path
       style="fill:none;stroke:#000000;stroke-width:1px;stroke-linecap:butt;stroke-linejoin:miter;stroke-opacity:1"
       d="m 308.09653,357.37723 c -35.64735,1.98738 -72.6804,-4.51364 -107.42412,4.6021 -23.39746,21.44046 -58.79694,29.69713 -74.40334,59.03751 -21.24414,21.04116 -19.359,51.96597 -34.357651,76.13481 -12.308466,30.10736 -27.496072,60.2286 -56.21908,77.86304 -5.912203,3.97922 -12.311018,7.17557 -18.519746,10.65702"
       id="path3030"
       inkscape:connector-curvature="0" />
    <path
       style="fill:none;stroke:#000000;stroke-width:1px;stroke-linecap:butt;stroke-linejoin:miter;stroke-opacity:1"
       d="m 18.182746,584.66155 c 8.103746,24.75007 39.308962,32.54931 62.629458,24.24367 37.832836,14.28712 31.495516,-49.17361 2.020305,-44.44672 -21.587272,5.81006 -44.072852,10.4659 -64.649763,20.20305 z"
       id="path3032"
       inkscape:connector-curvature="0" />
    <path
       style="fill:none;stroke:#000000;stroke-width:1px;stroke-linecap:butt;stroke-linejoin:miter;stroke-opacity:1"
       d="m 500.02551,688.70727 c -2.0423,-5.72795 3.47641,-11.43905 8.08122,-13.13199"
       id="path3034"
       inkscape:connector-curvature="0" />
  </g>
</svg>
